<?xml version="1.0" encoding="UTF-8"?>
<svg version="1.1" xmlns="http://www.w3.org/2000/svg" width="500" height="500">
<path d="M0 0 C165 0 330 0 500 0 C500 165 500 330 500 500 C335 500 170 500 0 500 C0 335 0 170 0 0 Z " fill="#FEFEFE" transform="translate(0,0)"/>
<path d="M0 0 C1.68081413 -0.00628418 1.68081413 -0.00628418 3.39558411 -0.01269531 C7.01115466 -0.02243696 10.62660603 -0.02249021 14.2421875 -0.01953125 C15.47583038 -0.01925934 16.70947327 -0.01898743 17.98049927 -0.01870728 C50.99686299 0.0148244 83.65438764 1.77072965 116.1171875 8.16796875 C117.52581055 8.44278076 117.52581055 8.44278076 118.96289062 8.72314453 C133.51423825 11.58490956 147.210949 14.95312931 161.1171875 20.16796875 C161.1171875 47.22796875 161.1171875 74.28796875 161.1171875 102.16796875 C160.4571875 102.16796875 159.7971875 102.16796875 159.1171875 102.16796875 C158.11177259 101.06321644 157.16354922 99.90623632 156.2421875 98.73046875 C143.85574638 84.30929397 125.63479293 77.23820753 108.1171875 71.16796875 C107.10398437 70.79889404 107.10398437 70.79889404 106.0703125 70.42236328 C66.07330297 56.28828491 17.23599732 56.94420679 -23.8828125 65.16796875 C-10.5178125 65.66296875 -10.5178125 65.66296875 3.1171875 66.16796875 C3.28526947 73.99545262 3.44545445 81.81635788 3.53118896 89.64408112 C3.57333585 93.28947087 3.62958493 96.93335836 3.72070312 100.57788086 C3.80801297 104.09231224 3.85553794 107.605293 3.87620544 111.12072563 C3.89805417 113.10579731 3.96044949 115.09028964 4.02355957 117.07447815 C4.02792236 125.88843043 4.02792236 125.88843043 1.65525818 129.22190857 C-0.26977539 130.88671875 -0.26977539 130.88671875 -2.47402954 132.45191956 C-5.25363353 134.43214661 -7.51032183 136.66371476 -9.90600586 139.09350586 C-10.80310776 139.99391098 -11.70020966 140.8943161 -12.62449646 141.82200623 C-13.08894102 142.29056974 -13.55338558 142.75913326 -14.03190422 143.24189568 C-15.50478972 144.72772844 -16.98093797 146.21025285 -18.457901 147.69203186 C-21.58156151 150.82700839 -24.70120772 153.96596041 -27.8203125 157.10546875 C-31.4614735 160.77024479 -35.10426883 164.4333663 -38.75125313 168.0923481 C-40.20747233 169.55506087 -41.66065859 171.02074216 -43.11375427 172.48655701 C-43.98879105 173.364897 -44.86382782 174.243237 -45.76538086 175.14819336 C-46.53845078 175.92650009 -47.31152069 176.70480682 -48.10801697 177.50669861 C-49.8828125 179.16796875 -49.8828125 179.16796875 -50.8828125 179.16796875 C-50.8828125 140.88796875 -50.8828125 102.60796875 -50.8828125 63.16796875 C-52.5328125 63.16796875 -54.1828125 63.16796875 -55.8828125 63.16796875 C-55.8828125 61.51796875 -55.8828125 59.86796875 -55.8828125 58.16796875 C-60.8328125 58.16796875 -65.7828125 58.16796875 -70.8828125 58.16796875 C-70.7673407 59.81895569 -70.6518689 61.46994263 -70.53289795 63.17095947 C-69.12812282 83.90543985 -68.18302606 104.64345454 -67.6328125 125.41796875 C-67.61075871 126.23459268 -67.58870491 127.0512166 -67.56598282 127.89258671 C-65.64311974 201.49573028 -65.64311974 201.49573028 -85.574646 223.77746582 C-88.95528831 227.31416327 -92.57108382 230.48107277 -96.3828125 233.54296875 C-96.98834457 234.02983658 -97.59387665 234.51670441 -98.21775818 235.01832581 C-104.26837247 239.79699012 -110.49309948 244.02706915 -117.20117188 247.83740234 C-122.40019341 250.7939597 -126.61317874 253.99552512 -130.8828125 258.16796875 C-131.33325424 258.60775433 -131.78369598 259.0475399 -132.24778748 259.50065231 C-135.60077594 262.78546266 -138.91795027 266.10498709 -142.22549438 269.43548584 C-144.10777426 271.33068768 -145.99329868 273.22260928 -147.87963867 275.11376953 C-151.88353289 279.12901579 -155.88347056 283.14818888 -159.8828125 287.16796875 C-164.52225804 291.83112336 -169.16336991 296.4925943 -173.80874634 301.14984131 C-175.65412609 303.00163909 -177.49643544 304.85645324 -179.33862305 306.71142578 C-189.60011367 317.01568719 -189.60011367 317.01568719 -195.1081543 321.51220703 C-197.62889766 323.86406856 -199.70932814 326.49244601 -201.8828125 329.16796875 C-181.16723044 329.15412195 -160.45187885 329.11169892 -139.73642731 329.03587818 C-130.11641439 329.00132373 -120.49654335 328.97588524 -110.87646484 328.97241211 C-102.48503763 328.96935888 -94.0938637 328.94868696 -85.7025342 328.90744418 C-81.26526579 328.88623506 -76.82835637 328.87345072 -72.39103699 328.88181496 C-68.20146235 328.88943253 -64.01261044 328.87322492 -59.8231678 328.8399086 C-58.29798066 328.83176698 -56.77272036 328.83181499 -55.24754143 328.84137154 C-40.04802024 328.9270641 -25.2529447 326.07590046 -13.8828125 315.16796875 C-10.88057253 311.68313521 -8.31041949 308.07151519 -5.8828125 304.16796875 C-5.41617187 303.41902344 -4.94953125 302.67007812 -4.46875 301.8984375 C-1.99948388 297.50583145 -1.65081544 294.98326267 -2.8828125 290.16796875 C-4.24454443 287.61720979 -4.24454443 287.61720979 -6.04296875 285.2421875 C-6.67138672 284.36369141 -7.29980469 283.48519531 -7.94726562 282.58007812 C-8.93629883 281.23139648 -8.93629883 281.23139648 -9.9453125 279.85546875 C-11.25041376 278.04811278 -12.5538943 276.23958497 -13.85546875 274.4296875 C-14.43562744 273.63522217 -15.01578613 272.84075684 -15.61352539 272.0222168 C-16.8828125 270.16796875 -16.8828125 270.16796875 -16.8828125 269.16796875 C-15.99360107 269.25776001 -15.99360107 269.25776001 -15.08642578 269.34936523 C-8.64545551 269.99697301 -2.20234936 270.61948245 4.2421875 271.23046875 C7.5009375 271.53984375 10.7596875 271.84921875 14.1171875 272.16796875 C14.1171875 285.69796875 14.1171875 299.22796875 14.1171875 313.16796875 C10.1171875 309.16796875 10.1171875 309.16796875 4.1171875 300.16796875 C3.7871875 329.86796875 3.4571875 359.56796875 3.1171875 390.16796875 C-103.1428125 390.16796875 -209.4028125 390.16796875 -318.8828125 390.16796875 C-318.8828125 323.71092945 -318.8828125 323.71092945 -295.30615234 299.41967773 C-293.59843581 297.92408313 -291.87160018 296.44999545 -290.125 295 C-288.17782713 293.30726524 -286.23223677 291.61270869 -284.28808594 289.91650391 C-283.3142395 289.07792847 -282.34039307 288.23935303 -281.33703613 287.37536621 C-276.35710378 283.02222093 -271.55613084 278.47976026 -266.734375 273.953125 C-256.3471962 264.2611644 -245.7975386 254.74955119 -234.97437954 245.54493046 C-228.93065022 240.36385487 -223.32843664 234.75470801 -217.70922852 229.1237793 C-216.60644285 228.02235121 -215.50344512 226.92113541 -214.4002533 225.82011414 C-211.42734985 222.85173942 -208.45758163 219.88024699 -205.48853421 216.90801597 C-202.37552675 213.79246506 -199.26006702 210.67936787 -196.14500427 207.56587219 C-190.92242625 202.34510846 -185.70194949 197.12225056 -180.48266602 191.89819336 C-174.44504175 185.85511077 -168.4038004 179.8156621 -162.36070114 173.77805489 C-157.16637075 168.58825636 -151.97398384 163.39651942 -146.78322929 158.20314437 C-143.68517556 155.10353047 -140.58644727 152.00459907 -137.48596382 148.90741539 C-134.57722756 146.00155948 -131.67093257 143.09328415 -128.76653481 140.18309212 C-127.69869619 139.11392752 -126.62999879 138.04561989 -125.5603981 136.97821808 C-124.10500984 135.5255472 -122.65271274 134.06985601 -121.20118713 132.61332703 C-120.38657296 131.79833583 -119.57195879 130.98334463 -118.73265934 130.14365673 C-116.82982819 128.29938905 -116.82982819 128.29938905 -115.8828125 126.16796875 C-134.95513241 126.27547571 -154.02741405 126.3882836 -173.09966564 126.50730801 C-181.95632359 126.56245783 -190.81298555 126.61590863 -199.66967773 126.6652832 C-207.39407012 126.70834979 -215.11843504 126.75468214 -222.8427847 126.8048473 C-226.92828908 126.83126858 -231.01378866 126.8561148 -235.09932518 126.87704277 C-238.95458254 126.89684294 -242.80978848 126.92105076 -246.66499901 126.94845963 C-248.07051648 126.95770798 -249.47604511 126.96542518 -250.88158035 126.97138786 C-269.69783309 127.05358253 -288.03178313 127.37395045 -302.6875 140.82421875 C-304.24158165 142.5312929 -305.57052881 144.26901706 -306.8828125 146.16796875 C-307.38296875 146.8846875 -307.883125 147.60140625 -308.3984375 148.33984375 C-312.83681805 155.19915915 -315.36701146 162.44245581 -317.8828125 170.16796875 C-318.2128125 170.16796875 -318.5428125 170.16796875 -318.8828125 170.16796875 C-318.8828125 135.84796875 -318.8828125 101.52796875 -318.8828125 66.16796875 C-307.02730469 66.24660156 -295.17179687 66.32523437 -282.95703125 66.40625 C-275.44197771 66.42707197 -267.92715501 66.44459973 -260.41210938 66.44726562 C-248.48606802 66.4521081 -236.56112974 66.47031568 -224.63549805 66.57592773 C-215.94911437 66.65279141 -207.2639694 66.68369957 -198.5772565 66.66015214 C-193.97994898 66.64927583 -189.38525662 66.66091421 -184.78836632 66.72765541 C-180.45410043 66.78985584 -176.12406822 66.79023689 -171.78963661 66.74477005 C-170.20581094 66.7387651 -168.62171405 66.75466312 -167.03839111 66.79501534 C-158.68906892 67.11582772 -158.68906892 67.11582772 -151.20482278 63.91517997 C-148.05878294 60.87553982 -145.56029811 57.46084786 -143.10610545 53.85519731 C-123.25933752 26.48151403 -83.92159028 10.92626099 -51.8828125 5.16796875 C-41.91725347 3.590715 -31.90894475 2.29462367 -21.8828125 1.16796875 C-20.77732559 1.03632576 -20.77732559 1.03632576 -19.64950562 0.90202332 C-13.08818431 0.17031464 -6.59845541 0.00759502 0 0 Z " fill="#010101" transform="translate(325.8828125,68.83203125)"/>
<path d="M0 0 C43.23 0 86.46 0 131 0 C131 55.77 131 111.54 131 169 C124.32657508 171.66936997 117.93367506 174.06265862 111.0625 176 C110.26521484 176.23460937 109.46792969 176.46921875 108.64648438 176.7109375 C93.93740639 180.90387007 78.94543568 183.51947007 63.78295898 185.38305664 C61.30122136 185.68888991 58.82155459 186.00862354 56.34179688 186.33007812 C40.88093944 188.30042584 25.58696848 189.16321103 10 189.0625 C8.62760585 189.0574616 7.25520985 189.05290294 5.8828125 189.04882812 C2.58849208 189.03722841 -0.70572784 189.02091091 -4 189 C-4.99 186.525 -4.99 186.525 -6 184 C-4.02 184 -2.04 184 0 184 C0 165.85 0 147.7 0 129 C9.9 128.505 9.9 128.505 20 128 C24.15418383 127.55918695 28.24820255 127.09543792 32.375 126.5 C33.33148438 126.36980469 34.28796875 126.23960937 35.2734375 126.10546875 C39.86274343 125.47443918 44.43111923 124.76544128 49 124 C48.8917443 114.98447407 48.77897033 105.96901863 48.66066074 96.953619 C48.60584311 92.76597769 48.55249629 88.5783291 48.50268555 84.390625 C48.45442565 80.33809906 48.40207414 76.28564355 48.34705925 72.23320389 C48.32691063 70.69853123 48.30815802 69.16383949 48.29092598 67.62913132 C48.84098315 41.39478007 48.84098315 41.39478007 37 19 C29.0477623 11.90568006 20.16581648 8.4982759 10 5.75 C9.03449219 5.481875 8.06898438 5.21375 7.07421875 4.9375 C4.71806526 4.28430893 2.36012366 3.63866687 0 3 C0 2.01 0 1.02 0 0 Z " fill="#010101" transform="translate(356,212)"/>
</svg>
